<svg xmlns="http://www.w3.org/2000/svg" width="32" height="32" viewBox="0 0 24 24"><!-- Icon from Material Line Icons by Vjacheslav Trushkin - https://github.com/cyberalien/line-md/blob/master/license.txt --><circle cx="17" cy="7" r="1.5" fill="#ffffff" fill-opacity="0"><animate fill="freeze" attributeName="fill-opacity" begin="1.3s" dur="0.15s" values="0;1"/></circle><g fill="none" stroke="#ffffff" stroke-linecap="round" stroke-linejoin="round" stroke-width="2"><path stroke-dasharray="72" stroke-dashoffset="72" d="M16 3c2.76 0 5 2.24 5 5v8c0 2.76 -2.24 5 -5 5h-8c-2.76 0 -5 -2.24 -5 -5v-8c0 -2.76 2.24 -5 5 -5h4Z"><animate fill="freeze" attributeName="stroke-dashoffset" dur="0.6s" values="72;0"/></path><path stroke-dasharray="28" stroke-dashoffset="28" d="M12 8c2.21 0 4 1.79 4 4c0 2.21 -1.79 4 -4 4c-2.21 0 -4 -1.79 -4 -4c0 -2.21 1.79 -4 4 -4"><animate fill="freeze" attributeName="stroke-dashoffset" begin="0.7s" dur="0.6s" values="28;0"/></path></g></svg>